<?xml version="1.0" encoding="UTF-8" standalone="no"?>
<!DOCTYPE svg PUBLIC "-//W3C//DTD SVG 1.1//EN"
 "http://www.w3.org/Graphics/SVG/1.1/DTD/svg11.dtd">
<!-- Generated by graphviz version 2.47.3 (20210619.1520)
 -->
<!-- Title: dependencies Pages: 1 -->
<svg width="522pt" height="174pt"
 viewBox="0.00 0.00 522.00 173.80" xmlns="http://www.w3.org/2000/svg" xmlns:xlink="http://www.w3.org/1999/xlink">
<g id="graph0" class="graph" transform="scale(1 1) rotate(0) translate(4 169.8)">
<title>dependencies</title>
<polygon fill="white" stroke="transparent" points="-4,4 -4,-169.8 518,-169.8 518,4 -4,4"/>
<text text-anchor="middle" x="257" y="-8.2" font-family="sans-serif" font-size="14.00">dependencies</text>
<g id="clust1" class="cluster">
<title>cluster_AppModule</title>
<polygon fill="none" stroke="black" stroke-dasharray="1,5" points="8,-32.8 8,-157.8 506,-157.8 506,-32.8 8,-32.8"/>
</g>
<g id="clust3" class="cluster">
<title>cluster_AppModule_imports</title>
<polygon fill="none" stroke="black" points="154,-40.8 154,-92.8 498,-92.8 498,-40.8 154,-40.8"/>
</g>
<g id="clust6" class="cluster">
<title>cluster_AppModule_providers</title>
<polygon fill="none" stroke="black" points="16,-40.8 16,-92.8 146,-92.8 146,-40.8 16,-40.8"/>
</g>
<!-- AccountModule -->
<g id="node1" class="node">
<title>AccountModule</title>
<polygon fill="#8dd3c7" stroke="black" points="490.48,-84.8 487.48,-88.8 466.48,-88.8 463.48,-84.8 383.52,-84.8 383.52,-48.8 490.48,-48.8 490.48,-84.8"/>
<text text-anchor="middle" x="437" y="-62.6" font-family="Times,serif" font-size="14.00">AccountModule</text>
</g>
<!-- AppModule -->
<g id="node4" class="node">
<title>AppModule</title>
<polygon fill="#8dd3c7" stroke="black" points="307.66,-149.8 304.66,-153.8 283.66,-153.8 280.66,-149.8 224.34,-149.8 224.34,-113.8 307.66,-113.8 307.66,-149.8"/>
<text text-anchor="middle" x="266" y="-127.6" font-family="Times,serif" font-size="14.00">AppModule</text>
</g>
<!-- AccountModule&#45;&gt;AppModule -->
<g id="edge1" class="edge">
<title>AccountModule&#45;&gt;AppModule</title>
<path fill="none" stroke="black" d="M437,-84.91C437,-104.14 437,-131.8 437,-131.8 437,-131.8 317.83,-131.8 317.83,-131.8"/>
<polygon fill="black" stroke="black" points="317.83,-128.3 307.83,-131.8 317.83,-135.3 317.83,-128.3"/>
</g>
<!-- AuthModule -->
<g id="node2" class="node">
<title>AuthModule</title>
<polygon fill="#8dd3c7" stroke="black" points="365.55,-84.8 362.55,-88.8 341.55,-88.8 338.55,-84.8 278.45,-84.8 278.45,-48.8 365.55,-48.8 365.55,-84.8"/>
<text text-anchor="middle" x="322" y="-62.6" font-family="Times,serif" font-size="14.00">AuthModule</text>
</g>
<!-- AuthModule&#45;&gt;AppModule -->
<g id="edge2" class="edge">
<title>AuthModule&#45;&gt;AppModule</title>
<path fill="none" stroke="black" d="M293.03,-84.91C293.03,-84.91 293.03,-103.79 293.03,-103.79"/>
<polygon fill="black" stroke="black" points="289.53,-103.79 293.03,-113.79 296.53,-103.79 289.53,-103.79"/>
</g>
<!-- PrismaModule -->
<g id="node3" class="node">
<title>PrismaModule</title>
<polygon fill="#8dd3c7" stroke="black" points="260.43,-84.8 257.43,-88.8 236.43,-88.8 233.43,-84.8 161.57,-84.8 161.57,-48.8 260.43,-48.8 260.43,-84.8"/>
<text text-anchor="middle" x="211" y="-62.6" font-family="Times,serif" font-size="14.00">PrismaModule</text>
</g>
<!-- PrismaModule&#45;&gt;AppModule -->
<g id="edge3" class="edge">
<title>PrismaModule&#45;&gt;AppModule</title>
<path fill="none" stroke="black" d="M242.19,-84.91C242.19,-84.91 242.19,-103.79 242.19,-103.79"/>
<polygon fill="black" stroke="black" points="238.69,-103.79 242.19,-113.79 245.69,-103.79 238.69,-103.79"/>
</g>
<!-- AppService -->
<g id="node5" class="node">
<title>AppService</title>
<ellipse fill="#fdb462" stroke="black" cx="81" cy="-66.8" rx="56.74" ry="18"/>
<text text-anchor="middle" x="81" y="-62.6" font-family="Times,serif" font-size="14.00">AppService</text>
</g>
<!-- AppService&#45;&gt;AppModule -->
<g id="edge4" class="edge">
<title>AppService&#45;&gt;AppModule</title>
<path fill="none" stroke="black" d="M81,-84.91C81,-104.14 81,-131.8 81,-131.8 81,-131.8 214.02,-131.8 214.02,-131.8"/>
<polygon fill="black" stroke="black" points="214.02,-135.3 224.02,-131.8 214.02,-128.3 214.02,-135.3"/>
</g>
</g>
</svg>
